<svg data-v-423bf9ae="" xmlns="http://www.w3.org/2000/svg" viewBox="0 0 335 90" class="iconLeft"><!----><!----><!----><g data-v-423bf9ae="" id="77414068-b805-49f8-9e88-69d302a22e3d" fill="white" transform="matrix(6.1412484328310715,0,0,6.1412484328310715,109.91550460313265,-3.669394047862106)"><path d="M9.31 12.67L7.98 12.67L6.88 9.86L2.49 9.86L1.38 12.67L0.03 12.67L3.96 3.04L5.44 3.04L9.31 12.67ZM4.87 4.59L4.68 4.03L4.62 4.22L4.62 4.22Q4.45 4.79 4.12 5.67L4.12 5.67L2.88 8.84L6.49 8.84L5.25 5.66L5.25 5.66Q5.06 5.19 4.87 4.59L4.87 4.59ZM17.33 4.11L11.79 4.11L11.79 7.69L17.17 7.69L17.17 8.77L11.79 8.77L11.79 12.67L10.49 12.67L10.49 3.04L17.33 3.04L17.33 4.11ZM22.89 12.81L22.89 12.81L22.89 12.81Q21.70 12.81 20.82 12.38L20.82 12.38L20.82 12.38Q19.94 11.95 19.46 11.13L19.46 11.13L19.46 11.13Q18.97 10.31 18.97 9.17L18.97 9.17L18.97 3.04L20.28 3.04L20.28 9.06L20.28 9.06Q20.28 10.38 20.95 11.07L20.95 11.07L20.95 11.07Q21.62 11.75 22.88 11.75L22.88 11.75L22.88 11.75Q24.18 11.75 24.90 11.04L24.90 11.04L24.90 11.04Q25.62 10.34 25.62 8.98L25.62 8.98L25.62 3.04L26.92 3.04L26.92 9.05L26.92 9.05Q26.92 10.22 26.42 11.07L26.42 11.07L26.42 11.07Q25.93 11.92 25.02 12.36L25.02 12.36L25.02 12.36Q24.12 12.81 22.89 12.81ZM36.60 5.94L36.60 5.94L36.60 5.94Q36.60 7.31 35.71 8.11L35.71 8.11L35.71 8.11Q34.82 8.92 33.28 8.92L33.28 8.92L30.45 8.92L30.45 12.67L29.15 12.67L29.15 3.04L33.20 3.04L33.20 3.04Q34.82 3.04 35.71 3.80L35.71 3.80L35.71 3.80Q36.60 4.56 36.60 5.94ZM35.29 5.95L35.29 5.95L35.29 5.95Q35.29 4.09 33.04 4.09L33.04 4.09L30.45 4.09L30.45 7.89L33.10 7.89L33.10 7.89Q35.29 7.89 35.29 5.95Z"></path></g><!----><g data-v-423bf9ae="" id="6fda91d2-ce75-4a1c-bf72-9362b1ad0f78" transform="matrix(1.0011081670502846,0,0,1.0011081670502846,-4.0554083525142275,-4.005540415161313)" stroke="none" fill="white"><path d="M35.6 47.3h13.5v47.6h1.8V47.3h14.4L50 23z"></path><path d="M50 5C24.8 4.9 5 24.6 5 49.9v.2C5 62 9.6 72.7 17.2 80.7c.3-.5.6-1.1 1-1.6-7.1-7.6-11.3-17.8-11.3-29v-.2c0-24.1 19-43.2 43.1-43.2 23.8 0 43.2 19.4 43.2 43.2 0 11.1-4.3 21.4-11.2 29l.9 1.6c7.6-8 12.1-18.8 12.1-30.7C94.9 25.2 74.7 5 50 5z"></path></g><!----></svg>